<svg xmlns="http://www.w3.org/2000/svg" width="192" height="192" viewBox="0 0 192 192" role="img" aria-labelledby="title">
  <title id="title">Digital Twin app icon</title>
  <rect width="192" height="192" rx="44" fill="#0b0d14"/>
  <circle cx="96" cy="96" r="70" fill="#7c5cfc" opacity="0.18"/>
  <circle cx="96" cy="96" r="48" fill="#7c5cfc" opacity="0.28"/>
  <path d="M96 39c25.4 0 46 20.6 46 46 0 40.8-46 68-46 68s-46-27.2-46-68c0-25.4 20.6-46 46-46Z" fill="#f0f1f5"/>
  <path d="M77 85c0-10.5 8.5-19 19-19s19 8.5 19 19-8.5 19-19 19-19-8.5-19-19Z" fill="#0b0d14"/>
  <path d="M64 127c7.6-14.3 19.1-22 32-22s24.4 7.7 32 22" fill="none" stroke="#7c5cfc" stroke-width="12" stroke-linecap="round"/>
  <path d="M58 62c12.5-15.3 25.2-23 38-23s25.5 7.7 38 23" fill="none" stroke="#9b82fd" stroke-width="8" stroke-linecap="round"/>
</svg>
